<mxfile host="app.diagrams.net" modified="2023-04-09T02:04:18.366Z" agent="Mozilla/5.0 (Windows NT 10.0; Win64; x64; rv:109.0) Gecko/20100101 Firefox/111.0" etag="ghtOEFp0a8ZC4uZh83_V" version="21.1.4" type="device">
  <diagram name="Page-1" id="uNpNYp2cLnWQfH8eCoGV">
    <mxGraphModel dx="1122" dy="614" grid="1" gridSize="10" guides="1" tooltips="1" connect="1" arrows="1" fold="1" page="1" pageScale="1" pageWidth="850" pageHeight="1100" math="0" shadow="0">
      <root>
        <mxCell id="0" />
        <mxCell id="1" parent="0" />
        <mxCell id="BhA9pQ3FvRquaxhp6UkD-10" value="User" style="shape=umlActor;verticalLabelPosition=bottom;verticalAlign=top;html=1;outlineConnect=0;" vertex="1" parent="1">
          <mxGeometry x="120" y="200" width="70" height="140" as="geometry" />
        </mxCell>
        <mxCell id="BhA9pQ3FvRquaxhp6UkD-15" value="" style="endArrow=none;html=1;rounded=0;entryX=0;entryY=0.5;entryDx=0;entryDy=0;" edge="1" parent="1" target="BhA9pQ3FvRquaxhp6UkD-9">
          <mxGeometry width="50" height="50" relative="1" as="geometry">
            <mxPoint x="200" y="220" as="sourcePoint" />
            <mxPoint x="310" y="210" as="targetPoint" />
          </mxGeometry>
        </mxCell>
        <mxCell id="BhA9pQ3FvRquaxhp6UkD-16" value="" style="endArrow=none;html=1;rounded=0;entryX=0;entryY=0.5;entryDx=0;entryDy=0;" edge="1" parent="1" target="BhA9pQ3FvRquaxhp6UkD-2">
          <mxGeometry width="50" height="50" relative="1" as="geometry">
            <mxPoint x="200" y="260" as="sourcePoint" />
            <mxPoint x="310" y="290" as="targetPoint" />
          </mxGeometry>
        </mxCell>
        <mxCell id="BhA9pQ3FvRquaxhp6UkD-25" value="" style="swimlane;startSize=0;" vertex="1" parent="1">
          <mxGeometry x="240" y="10" width="480" height="510" as="geometry" />
        </mxCell>
        <mxCell id="BhA9pQ3FvRquaxhp6UkD-1" value="notifications" style="ellipse;whiteSpace=wrap;html=1;" vertex="1" parent="BhA9pQ3FvRquaxhp6UkD-25">
          <mxGeometry x="320" y="260" width="120" height="80" as="geometry" />
        </mxCell>
        <mxCell id="BhA9pQ3FvRquaxhp6UkD-5" value="Route planner" style="ellipse;whiteSpace=wrap;html=1;" vertex="1" parent="BhA9pQ3FvRquaxhp6UkD-25">
          <mxGeometry x="320" y="380" width="120" height="80" as="geometry" />
        </mxCell>
        <mxCell id="BhA9pQ3FvRquaxhp6UkD-6" value="MPG tracker" style="ellipse;whiteSpace=wrap;html=1;" vertex="1" parent="BhA9pQ3FvRquaxhp6UkD-25">
          <mxGeometry x="320" y="140" width="120" height="80" as="geometry" />
        </mxCell>
        <mxCell id="BhA9pQ3FvRquaxhp6UkD-9" value="user account" style="ellipse;whiteSpace=wrap;html=1;" vertex="1" parent="BhA9pQ3FvRquaxhp6UkD-25">
          <mxGeometry x="120" y="140" width="120" height="80" as="geometry" />
        </mxCell>
        <mxCell id="BhA9pQ3FvRquaxhp6UkD-19" value="" style="endArrow=none;dashed=1;html=1;rounded=0;entryX=0;entryY=0.5;entryDx=0;entryDy=0;exitX=1;exitY=0.5;exitDx=0;exitDy=0;strokeColor=default;startArrow=classic;startFill=1;endFill=0;" edge="1" parent="BhA9pQ3FvRquaxhp6UkD-25" source="BhA9pQ3FvRquaxhp6UkD-4" target="BhA9pQ3FvRquaxhp6UkD-7">
          <mxGeometry width="50" height="50" relative="1" as="geometry">
            <mxPoint x="270" y="90" as="sourcePoint" />
            <mxPoint x="320" y="40" as="targetPoint" />
          </mxGeometry>
        </mxCell>
        <mxCell id="BhA9pQ3FvRquaxhp6UkD-26" value="&amp;lt;&amp;lt;extend&amp;gt;&amp;gt;" style="edgeLabel;html=1;align=center;verticalAlign=middle;resizable=0;points=[];" vertex="1" connectable="0" parent="BhA9pQ3FvRquaxhp6UkD-19">
          <mxGeometry x="-0.4" y="-1" relative="1" as="geometry">
            <mxPoint x="16" y="-11" as="offset" />
          </mxGeometry>
        </mxCell>
        <mxCell id="BhA9pQ3FvRquaxhp6UkD-20" value="" style="endArrow=none;dashed=1;html=1;rounded=0;entryX=0;entryY=0.5;entryDx=0;entryDy=0;exitX=1;exitY=0.5;exitDx=0;exitDy=0;startArrow=classic;startFill=1;" edge="1" parent="BhA9pQ3FvRquaxhp6UkD-25" source="BhA9pQ3FvRquaxhp6UkD-9" target="BhA9pQ3FvRquaxhp6UkD-6">
          <mxGeometry width="50" height="50" relative="1" as="geometry">
            <mxPoint x="260" y="280" as="sourcePoint" />
            <mxPoint x="310" y="230" as="targetPoint" />
          </mxGeometry>
        </mxCell>
        <mxCell id="BhA9pQ3FvRquaxhp6UkD-21" value="" style="endArrow=classic;dashed=1;html=1;rounded=0;entryX=0;entryY=0;entryDx=0;entryDy=0;exitX=1;exitY=1;exitDx=0;exitDy=0;endFill=1;startArrow=none;startFill=0;" edge="1" parent="BhA9pQ3FvRquaxhp6UkD-25" source="BhA9pQ3FvRquaxhp6UkD-9" target="BhA9pQ3FvRquaxhp6UkD-1">
          <mxGeometry width="50" height="50" relative="1" as="geometry">
            <mxPoint x="230" y="410" as="sourcePoint" />
            <mxPoint x="330" y="290" as="targetPoint" />
          </mxGeometry>
        </mxCell>
        <mxCell id="BhA9pQ3FvRquaxhp6UkD-22" value="" style="endArrow=none;dashed=1;html=1;rounded=0;entryX=0;entryY=0.5;entryDx=0;entryDy=0;exitX=1;exitY=0;exitDx=0;exitDy=0;startArrow=classic;startFill=1;" edge="1" parent="BhA9pQ3FvRquaxhp6UkD-25" source="BhA9pQ3FvRquaxhp6UkD-3" target="BhA9pQ3FvRquaxhp6UkD-5">
          <mxGeometry width="50" height="50" relative="1" as="geometry">
            <mxPoint x="340" y="580" as="sourcePoint" />
            <mxPoint x="390" y="530" as="targetPoint" />
          </mxGeometry>
        </mxCell>
        <mxCell id="BhA9pQ3FvRquaxhp6UkD-28" value="&amp;lt;&amp;lt;include&amp;gt;&amp;gt;" style="text;html=1;align=center;verticalAlign=middle;resizable=0;points=[];autosize=1;strokeColor=none;fillColor=none;rotation=30;" vertex="1" parent="BhA9pQ3FvRquaxhp6UkD-25">
          <mxGeometry x="245" y="220" width="90" height="30" as="geometry" />
        </mxCell>
        <mxCell id="BhA9pQ3FvRquaxhp6UkD-33" value="&amp;lt;&amp;lt;extend&amp;gt;&amp;gt;" style="text;html=1;align=center;verticalAlign=middle;resizable=0;points=[];autosize=1;strokeColor=none;fillColor=none;rotation=-30;" vertex="1" parent="BhA9pQ3FvRquaxhp6UkD-25">
          <mxGeometry x="225" y="100" width="90" height="30" as="geometry" />
        </mxCell>
        <mxCell id="BhA9pQ3FvRquaxhp6UkD-29" value="&amp;lt;&amp;lt;extend&amp;gt;&amp;gt;" style="text;html=1;align=center;verticalAlign=middle;resizable=0;points=[];autosize=1;strokeColor=none;fillColor=none;" vertex="1" parent="BhA9pQ3FvRquaxhp6UkD-25">
          <mxGeometry x="240" y="150" width="90" height="30" as="geometry" />
        </mxCell>
        <mxCell id="BhA9pQ3FvRquaxhp6UkD-2" value="locate gas stations" style="ellipse;whiteSpace=wrap;html=1;" vertex="1" parent="BhA9pQ3FvRquaxhp6UkD-25">
          <mxGeometry x="120" y="260" width="120" height="80" as="geometry" />
        </mxCell>
        <mxCell id="BhA9pQ3FvRquaxhp6UkD-36" value="&amp;lt;&amp;lt;extend&amp;gt;&amp;gt;" style="text;html=1;align=center;verticalAlign=middle;resizable=0;points=[];autosize=1;strokeColor=none;fillColor=none;rotation=-45;" vertex="1" parent="BhA9pQ3FvRquaxhp6UkD-25">
          <mxGeometry x="70" y="360" width="90" height="30" as="geometry" />
        </mxCell>
        <mxCell id="BhA9pQ3FvRquaxhp6UkD-3" value="GPS directions" style="ellipse;whiteSpace=wrap;html=1;" vertex="1" parent="BhA9pQ3FvRquaxhp6UkD-25">
          <mxGeometry x="40" y="410" width="120" height="80" as="geometry" />
        </mxCell>
        <mxCell id="BhA9pQ3FvRquaxhp6UkD-35" value="" style="endArrow=classic;dashed=1;html=1;rounded=0;entryX=0.5;entryY=1;entryDx=0;entryDy=0;exitX=0.5;exitY=0;exitDx=0;exitDy=0;startArrow=none;startFill=0;endFill=1;" edge="1" parent="BhA9pQ3FvRquaxhp6UkD-25" source="BhA9pQ3FvRquaxhp6UkD-3" target="BhA9pQ3FvRquaxhp6UkD-2">
          <mxGeometry width="50" height="50" relative="1" as="geometry">
            <mxPoint x="170" y="410" as="sourcePoint" />
            <mxPoint x="220" y="360" as="targetPoint" />
          </mxGeometry>
        </mxCell>
        <mxCell id="BhA9pQ3FvRquaxhp6UkD-39" value="" style="endArrow=none;dashed=1;html=1;rounded=0;entryX=0;entryY=1;entryDx=0;entryDy=0;exitX=0;exitY=0;exitDx=0;exitDy=0;endFill=0;startArrow=classic;startFill=1;" edge="1" parent="BhA9pQ3FvRquaxhp6UkD-25" source="BhA9pQ3FvRquaxhp6UkD-2" target="BhA9pQ3FvRquaxhp6UkD-4">
          <mxGeometry width="50" height="50" relative="1" as="geometry">
            <mxPoint x="50" y="170" as="sourcePoint" />
            <mxPoint x="100" y="120" as="targetPoint" />
          </mxGeometry>
        </mxCell>
        <mxCell id="BhA9pQ3FvRquaxhp6UkD-40" value="&amp;lt;&amp;lt;extend&amp;gt;&amp;gt;" style="text;html=1;align=center;verticalAlign=middle;resizable=0;points=[];autosize=1;strokeColor=none;fillColor=none;rotation=60;" vertex="1" parent="BhA9pQ3FvRquaxhp6UkD-25">
          <mxGeometry x="40" y="130" width="90" height="30" as="geometry" />
        </mxCell>
        <mxCell id="BhA9pQ3FvRquaxhp6UkD-32" value="" style="endArrow=none;dashed=1;html=1;rounded=0;entryX=0;entryY=1;entryDx=0;entryDy=0;exitX=1;exitY=0;exitDx=0;exitDy=0;startArrow=classic;startFill=1;" edge="1" parent="BhA9pQ3FvRquaxhp6UkD-25" source="BhA9pQ3FvRquaxhp6UkD-9" target="BhA9pQ3FvRquaxhp6UkD-7">
          <mxGeometry width="50" height="50" relative="1" as="geometry">
            <mxPoint x="260" y="140" as="sourcePoint" />
            <mxPoint x="310" y="90" as="targetPoint" />
          </mxGeometry>
        </mxCell>
        <mxCell id="BhA9pQ3FvRquaxhp6UkD-38" value="&amp;lt;&amp;lt;extend&amp;gt;&amp;gt;" style="text;html=1;align=center;verticalAlign=middle;resizable=0;points=[];autosize=1;strokeColor=none;fillColor=none;" vertex="1" parent="BhA9pQ3FvRquaxhp6UkD-25">
          <mxGeometry x="185" y="395" width="90" height="30" as="geometry" />
        </mxCell>
        <mxCell id="BhA9pQ3FvRquaxhp6UkD-4" value="Gas station information" style="ellipse;whiteSpace=wrap;html=1;" vertex="1" parent="BhA9pQ3FvRquaxhp6UkD-25">
          <mxGeometry x="20" y="20" width="120" height="80" as="geometry" />
        </mxCell>
        <mxCell id="BhA9pQ3FvRquaxhp6UkD-7" value="reviews" style="ellipse;whiteSpace=wrap;html=1;" vertex="1" parent="BhA9pQ3FvRquaxhp6UkD-25">
          <mxGeometry x="320" y="20" width="120" height="80" as="geometry" />
        </mxCell>
        <mxCell id="BhA9pQ3FvRquaxhp6UkD-41" style="edgeStyle=orthogonalEdgeStyle;rounded=0;orthogonalLoop=1;jettySize=auto;html=1;exitX=0.5;exitY=1;exitDx=0;exitDy=0;" edge="1" parent="1" source="BhA9pQ3FvRquaxhp6UkD-25" target="BhA9pQ3FvRquaxhp6UkD-25">
          <mxGeometry relative="1" as="geometry" />
        </mxCell>
      </root>
    </mxGraphModel>
  </diagram>
</mxfile>
